<?xml version="1.0" encoding="UTF-8"?>
<svg id="Layer_1" xmlns="http://www.w3.org/2000/svg" version="1.1" xmlns:ev="http://www.w3.org/2001/xml-events" viewBox="0 0 500 500">
  <!-- Generator: Adobe Illustrator 29.6.1, SVG Export Plug-In . SVG Version: 2.1.1 Build 9)  -->
  <defs>
    <style>
      .st0 {
        fill: none;
        stroke: #f8b5c1;
        stroke-linecap: round;
        stroke-width: 36px;
      }
    </style>
  </defs>
  <path class="st0" d="M238.78,261.88l1.09.1,1.07.29,1.02.47.95.65.85.82.73.97.59,1.12.43,1.24.26,1.34.07,1.42-.13,1.48-.34,1.52-.56,1.53-.78,1.51-1,1.47-1.21,1.39-1.43,1.3-1.63,1.17-1.82,1.02-2,.84-2.16.65-2.3.43-2.41.19-2.51-.07-2.57-.34-2.61-.62-2.62-.91-2.59-1.2-2.53-1.5-2.45-1.8-2.32-2.09-2.17-2.37-1.98-2.64-1.77-2.9-1.52-3.14-1.25-3.35-.94-3.54-.62-3.71-.27-3.84.09-3.94.47-4.01.86-4.04,1.26-4.03,1.67-3.98,2.07-3.89,2.47-3.76,2.87-3.59,3.25-3.37,3.62-3.12,3.96-2.83,4.29-2.5,4.58-2.14,4.85-1.75,5.08-1.32,5.27-.87,5.42-.39,5.53.1,5.59.61,5.6,1.13,5.57,1.66,5.48,2.19,5.35,2.72,5.16,3.24,4.92,3.75,4.64,4.24,4.3,4.71,3.92,5.15,3.49,5.56,3.02,5.93,2.51,6.27,1.97,6.56,1.4,6.8.79,6.99.17,7.13-.47,7.21-1.13,7.23-1.79,7.2-2.46,7.1-3.12,6.94-3.77,6.72-4.4,6.43-5.02,6.09-5.61,5.69-6.16,5.23-6.68,4.72-7.15,4.15-7.58,3.54-7.95,2.89-8.27,2.2-8.53,1.47-8.72.72-8.84-.06-8.9-.85-8.88-1.65-8.79-2.45-8.63-3.25-8.39-4.05-8.09-4.82-7.7-5.57-7.25-6.29-6.74-6.98-6.16-7.62-5.51-8.21-4.81-8.75-4.06-9.23-3.26-9.64-2.42-9.98-1.55-10.25-.64-10.44.28-10.55,1.22-10.58,2.17-10.53,3.11-10.39,4.05-10.16,4.97-9.85,5.87-9.45,6.74-8.98,7.56-8.42,8.35-7.79,9.07-7.08,9.74-6.31,10.34-5.47,10.87-4.58,11.32-3.63,11.69-2.65,11.97-1.62,12.17-.57,12.26.51,12.27,1.59,12.17,2.69,11.98,3.77,11.69,4.85,11.3,5.9,10.82,6.92,10.25,7.9,9.59,8.84,8.84,9.71,8.01,10.53,7.11,11.27,6.13,11.94,5.1,12.52,4.01,13.01,2.87,13.4,1.7,13.7.49,13.89-.73,13.97-1.97,13.95-3.21,13.82-4.43,13.57-5.64,13.22-6.83,12.76-7.97,12.19-9.07,11.52-10.11,10.75-11.08,9.89-11.98,8.94-12.8,7.9-13.53,6.79-14.16,5.62-14.69,4.38-15.11,3.1-15.42,1.77-15.61.42-15.69-.96-15.64-2.34-15.46-3.72-15.17-5.09-14.75-6.44-14.22-7.75-13.56-9.02-12.79-10.23-11.92-11.38-10.94-12.45-9.86-13.44-8.7-14.33-7.45-15.13-6.14-15.81-4.76-16.38-3.32-16.83-1.85-17.15-.34-17.34,1.18-17.4,2.72-17.32,4.24-17.11,5.76-16.76,7.24-16.28,8.68-15.67,10.07-14.93,11.4-14.07,12.65-13.08,13.82-11.99,14.9-10.79,15.86-9.5,16.72-8.11,17.46-6.66,18.06-5.13,18.54-3.55,18.87-1.92,19.06-.27,19.11,1.41,19.01,3.09,18.76,4.76,18.36,6.42,17.81,8.04,17.13,9.61,16.3,11.12,15.34,12.57,14.25,13.93,13.04,15.19,11.72,16.35,10.29,17.4,8.77,18.32,7.17,19.1,5.5,19.75,3.77,20.25"/>
</svg>