<?xml version="1.0" encoding="UTF-8"?>
<svg id="Layer_1" xmlns="http://www.w3.org/2000/svg" version="1.1" viewBox="0 0 400 400">
  <!-- Generator: Adobe Illustrator 29.6.1, SVG Export Plug-In . SVG Version: 2.1.1 Build 9)  -->
  <defs>
    <style>
      .st0 {
        fill: #db2777;
      }
    </style>
  </defs>
  <path class="st0" d="M207.54,8.83c7.55-.28,14.14,5.29,15.44,12.64.81,52.96.14,106,.34,159,.6,9.18,11.12,14.46,18.62,8.63,4.69-3.65,4.36-9.31,4.54-14.73,1.45-43.73-1.11-88.25-.03-132.06,3.09-19.61,29.64-19.06,30.87,1.92.6,10.3-.31,20.89-.35,31.16-.13,30.18-.21,60.47.35,90.59.09,4.85-.43,10.41-.02,15.12,1.09,12.69,19.37,14.32,22.79,2.21l.02-102.14c1.08-13.67,18.21-19.7,26.99-8.98,3.31,4.04,3.14,6.71,3.2,11.54.78,62.74-.56,125.53.03,188.28-1.11,13.58-1.72,27.3-4.67,40.63-20.91,94.36-150.57,100.91-206.4,34.52-29.01-34.49-29.57-69.11-40.19-110.48-1.64-6.38-3.46-12.75-5.35-19.06-2.51-8.4-7.59-16.23-1.04-24.32s20.23-7.81,24.89,1.76c4.9,10.06,9.09,27.11,11.89,38.23,9.19,36.44,9.49,72.5,39.99,99.11,39.12,34.14,113.61,36.57,145.15-9.06,20.7-29.95,18.27-74.78-12.37-97.06-34.91-25.38-100.85-14.95-108.9,32.97-5.24,31.2,22.77,54.1,52.59,47.45,13.45-3,26.55-15.44,26.63-29.91.05-9.31-10.42-15.92-18.7-11.31-6.41,3.57-4.11,11.24-11.3,16.01-10.19,6.76-22.28-.56-24.17-11.82-2.85-16.97,12.3-29.81,27.48-33.06,34.95-7.48,63.84,15.99,56.06,52.53-11.45,53.74-88.47,60.58-121.7,23.51-17.68-19.72-18.86-41.77-18.77-66.97.23-62.5-.54-125.09.39-187.54,4.54-17.38,28.45-15.4,30.13,2.47l.02,121.41c1.69,12.57,19.41,12.47,20.53-.59V22.4c1.01-7.53,7.44-13.3,15.03-13.58Z"/>
</svg>